<svg width="20" height="21" viewBox="0 0 20 21" fill="none" xmlns="http://www.w3.org/2000/svg">
<path fill-rule="evenodd" clip-rule="evenodd" d="M10 0C4.47715 0 0 4.47715 0 10V17.0093C0 19.6066 3.07633 20.9767 5.00689 19.2392L5.65579 18.6552C5.9614 18.3801 6.40422 18.3201 6.77197 18.504L8.65836 19.4472C9.50294 19.8695 10.4971 19.8695 11.3416 19.4472L13.228 18.504C13.5958 18.3201 14.0386 18.3801 14.3442 18.6552L14.9931 19.2392C16.9237 20.9767 20 19.6066 20 17.0093V10C20 4.47715 15.5228 0 10 0ZM6.79957 11.3994C6.46788 10.9578 5.84101 10.8687 5.39942 11.2004C4.95783 11.5321 4.86874 12.159 5.20043 12.6006C6.29339 14.0557 8.03674 15 10.0004 15C11.964 15 13.7073 14.0557 14.8003 12.6006C15.132 12.159 15.0429 11.5321 14.6013 11.2004C14.1597 10.8687 13.5329 10.9578 13.2012 11.3994C12.4697 12.3732 11.3084 13 10.0004 13C8.69236 13 7.53103 12.3732 6.79957 11.3994ZM7 7C7.55228 7 8 7.44772 8 8V8.01123C8 8.56352 7.55228 9.01123 7 9.01123C6.44772 9.01123 6 8.56352 6 8.01123V8C6 7.44772 6.44772 7 7 7ZM14 8C14 7.44772 13.5523 7 13 7C12.4477 7 12 7.44772 12 8V8.01123C12 8.56352 12.4477 9.01123 13 9.01123C13.5523 9.01123 14 8.56352 14 8.01123V8Z" fill="#212121"/>
</svg>
