<svg width="39" height="13" viewBox="0 0 39 13" fill="none" xmlns="http://www.w3.org/2000/svg">
<path fill-rule="evenodd" clip-rule="evenodd" d="M24.8644 0L23.7691 2.66099L23.8957 3.91108L22.9443 4.0015L22.8177 2.75141L21.2091 0.347398L22.2884 0.244818L23.2056 1.75707L23.7962 0.101523L24.8644 0ZM0.950591 3.90349L1.36637 0.124125L0.415781 0.0260385L0 3.80541L0.950591 3.90349ZM6.47106 4.32275L8.0893 0.606961L7.07914 0.549885L5.9299 3.35935L5.13137 0.439834L4.11563 0.382443L5.27673 4.25527L6.47106 4.32275ZM12.5651 4.51485C12.1961 4.5141 11.8571 4.4304 11.5482 4.26374C11.2429 4.09709 10.9993 3.8656 10.8173 3.56925C10.639 3.26931 10.5503 2.93345 10.5511 2.56168C10.5519 2.1899 10.6421 1.85621 10.8216 1.5606C11.0049 1.26499 11.2495 1.03448 11.5554 0.869058C11.8651 0.703647 12.2045 0.621313 12.5734 0.622057C12.9424 0.6228 13.2795 0.706497 13.5848 0.873148C13.8938 1.03981 14.1355 1.2713 14.3101 1.56763C14.4883 1.86396 14.577 2.19802 14.5762 2.56979C14.5754 2.94156 14.4853 3.27706 14.3057 3.57629C14.1262 3.8719 13.8835 4.10242 13.5775 4.26784C13.2715 4.43325 12.9341 4.51559 12.5651 4.51485ZM12.5669 3.67024C12.88 3.67087 13.1299 3.57031 13.3167 3.36855C13.5072 3.16681 13.6028 2.8999 13.6035 2.56783C13.6042 2.23215 13.5098 1.96486 13.3201 1.76596C13.1342 1.56345 12.8847 1.46188 12.5716 1.46125C12.2548 1.46061 12.0012 1.55936 11.8107 1.7575C11.6239 1.95564 11.5302 2.22436 11.5294 2.56365C11.5287 2.89933 11.6213 3.16842 11.8072 3.37092C11.9969 3.56983 12.2501 3.6696 12.5669 3.67024ZM17.887 2.91279L18.7731 4.30809L19.8509 4.25808L18.8719 2.79663C19.1544 2.70041 19.3634 2.54979 19.4988 2.34476C19.6379 2.13956 19.7012 1.91077 19.6887 1.6584C19.6776 1.43487 19.6137 1.23547 19.4968 1.06022C19.3797 0.881355 19.2088 0.744741 18.984 0.650377C18.7629 0.55584 18.4979 0.515739 18.1889 0.530075L16.5863 0.604428L16.774 4.40083L17.7289 4.35653L17.658 2.92342L17.887 2.91279ZM18.2176 2.24159L17.6257 2.26905L17.5791 1.32806L18.171 1.3006C18.346 1.29248 18.4783 1.3279 18.5681 1.40685C18.6615 1.48563 18.7118 1.59712 18.7189 1.74133C18.7264 1.89276 18.6875 2.012 18.6023 2.09907C18.5208 2.18596 18.3925 2.23347 18.2176 2.24159ZM9.48655 10.1608C9.40442 10.4857 9.41449 10.8291 9.51675 11.1912C9.61901 11.5533 9.79085 11.8539 10.0323 12.0931C10.2737 12.3322 10.5608 12.4938 10.8936 12.5778C11.2291 12.6573 11.5801 12.6485 11.9468 12.5514C12.3962 12.4323 12.7489 12.2173 13.0049 11.9062C13.26 11.5917 13.3854 11.2217 13.3811 10.7962L12.3674 11.0648C12.3351 11.238 12.2602 11.3832 12.1426 11.5004C12.0286 11.6166 11.8836 11.6981 11.7074 11.7448C11.4234 11.82 11.1663 11.7852 10.9361 11.6404C10.7058 11.4955 10.5455 11.263 10.455 10.9427C10.3646 10.6224 10.3804 10.3431 10.5024 10.105C10.6245 9.86684 10.8276 9.71015 11.1116 9.63492C11.2877 9.58826 11.4554 9.58687 11.6146 9.63076C11.7774 9.6737 11.9182 9.76177 12.037 9.89496L13.0508 9.62642C12.8308 9.25808 12.5284 9.0014 12.1436 8.85637C11.7587 8.71134 11.3416 8.69834 10.8923 8.81737C10.5256 8.91451 10.2192 9.08171 9.97329 9.319C9.72994 9.55185 9.56769 9.83245 9.48655 10.1608ZM19.9041 7.2996L20.3432 11.0765L19.3932 11.1801L19.2125 9.62521L17.7347 9.78637L17.9155 11.3412L16.9655 11.4448L16.5264 7.66795L17.4764 7.56435L17.6484 9.0439L19.1261 8.88275L18.9541 7.4032L19.9041 7.2996ZM24.3995 10.9972L24.4415 7.19666L23.4855 7.18678L23.4436 10.9873L24.3995 10.9972ZM28.9636 8.23262L28.8621 8.99513L30.1318 9.15359L30.0375 9.8624L28.7678 9.70395L28.6578 10.5309L30.0938 10.7101L29.9959 11.4458L27.6118 11.1482L28.1133 7.37864L30.4975 7.67618L30.3996 8.41184L28.9636 8.23262ZM36.0237 12.751L36.9444 13L38 9.33931L37.0793 9.09029L36.4252 11.3587L35.5393 8.67379L34.6186 8.42477L33.563 12.0855L34.4837 12.3345L35.1348 10.0765L36.0237 12.751ZM29.1387 2.91221C30.5423 1.97646 31.9456 2.19829 33.4394 2.57174C33.6035 2.61278 33.7692 2.65589 33.9362 2.69935C35.2605 3.04396 36.6705 3.41089 38.0791 2.94137C38.21 2.8977 38.2808 2.75612 38.2372 2.62514C38.1935 2.49415 38.0519 2.42336 37.9209 2.46703C36.6625 2.88652 35.4056 2.56184 34.0623 2.21486C33.8965 2.17202 33.7293 2.12884 33.5606 2.08667C32.0544 1.71012 30.4577 1.43195 28.8613 2.49618C28.7464 2.57277 28.7154 2.72799 28.792 2.84287C28.8686 2.95775 29.0238 2.9888 29.1387 2.91221Z" fill="#212121"/>
</svg>
